<mxfile host="Electron" modified="2024-06-10T07:13:08.421Z" agent="Mozilla/5.0 (Windows NT 10.0; Win64; x64) AppleWebKit/537.36 (KHTML, like Gecko) draw.io/24.4.0 Chrome/120.0.6099.109 Electron/28.1.0 Safari/537.36" etag="D9g-9kohAFaLpAZK43ZZ" version="24.4.0" type="device">
  <diagram id="C5RBs43oDa-KdzZeNtuy" name="Page-1">
    <mxGraphModel dx="1462" dy="446" grid="1" gridSize="10" guides="1" tooltips="1" connect="1" arrows="1" fold="1" page="1" pageScale="1" pageWidth="827" pageHeight="1169" math="0" shadow="0">
      <root>
        <mxCell id="WIyWlLk6GJQsqaUBKTNV-0" />
        <mxCell id="WIyWlLk6GJQsqaUBKTNV-1" parent="WIyWlLk6GJQsqaUBKTNV-0" />
        <mxCell id="CR8tAsrSVtQFrWANwIwZ-7" style="edgeStyle=orthogonalEdgeStyle;rounded=0;orthogonalLoop=1;jettySize=auto;html=1;exitX=0.5;exitY=1;exitDx=0;exitDy=0;entryX=0.5;entryY=0;entryDx=0;entryDy=0;" edge="1" parent="WIyWlLk6GJQsqaUBKTNV-1" source="CR8tAsrSVtQFrWANwIwZ-0" target="CR8tAsrSVtQFrWANwIwZ-1">
          <mxGeometry relative="1" as="geometry" />
        </mxCell>
        <mxCell id="CR8tAsrSVtQFrWANwIwZ-0" value="Start" style="ellipse;whiteSpace=wrap;html=1;fontSize=28;" vertex="1" parent="WIyWlLk6GJQsqaUBKTNV-1">
          <mxGeometry x="200" y="100" width="120" height="80" as="geometry" />
        </mxCell>
        <mxCell id="CR8tAsrSVtQFrWANwIwZ-8" style="edgeStyle=orthogonalEdgeStyle;rounded=0;orthogonalLoop=1;jettySize=auto;html=1;exitX=0.5;exitY=1;exitDx=0;exitDy=0;entryX=0.5;entryY=0;entryDx=0;entryDy=0;" edge="1" parent="WIyWlLk6GJQsqaUBKTNV-1" source="CR8tAsrSVtQFrWANwIwZ-1" target="CR8tAsrSVtQFrWANwIwZ-2">
          <mxGeometry relative="1" as="geometry" />
        </mxCell>
        <mxCell id="CR8tAsrSVtQFrWANwIwZ-1" value="Zutaten einkaufen" style="rounded=0;whiteSpace=wrap;html=1;" vertex="1" parent="WIyWlLk6GJQsqaUBKTNV-1">
          <mxGeometry x="200" y="210" width="120" height="60" as="geometry" />
        </mxCell>
        <mxCell id="CR8tAsrSVtQFrWANwIwZ-10" value="Ja" style="edgeStyle=orthogonalEdgeStyle;rounded=0;orthogonalLoop=1;jettySize=auto;html=1;exitX=0.5;exitY=1;exitDx=0;exitDy=0;entryX=0.5;entryY=0;entryDx=0;entryDy=0;" edge="1" parent="WIyWlLk6GJQsqaUBKTNV-1" source="CR8tAsrSVtQFrWANwIwZ-2" target="CR8tAsrSVtQFrWANwIwZ-9">
          <mxGeometry relative="1" as="geometry" />
        </mxCell>
        <mxCell id="CR8tAsrSVtQFrWANwIwZ-2" value="Alle Zutaten?" style="rhombus;whiteSpace=wrap;html=1;" vertex="1" parent="WIyWlLk6GJQsqaUBKTNV-1">
          <mxGeometry x="200" y="300" width="120" height="80" as="geometry" />
        </mxCell>
        <mxCell id="CR8tAsrSVtQFrWANwIwZ-4" value="Zurück in den Laden" style="rounded=0;whiteSpace=wrap;html=1;" vertex="1" parent="WIyWlLk6GJQsqaUBKTNV-1">
          <mxGeometry x="360" y="210" width="120" height="60" as="geometry" />
        </mxCell>
        <mxCell id="CR8tAsrSVtQFrWANwIwZ-5" value="" style="endArrow=classic;html=1;rounded=0;exitX=1;exitY=0.5;exitDx=0;exitDy=0;entryX=0.5;entryY=1;entryDx=0;entryDy=0;" edge="1" parent="WIyWlLk6GJQsqaUBKTNV-1" source="CR8tAsrSVtQFrWANwIwZ-69" target="CR8tAsrSVtQFrWANwIwZ-4">
          <mxGeometry width="50" height="50" relative="1" as="geometry">
            <mxPoint x="400" y="390" as="sourcePoint" />
            <mxPoint x="450" y="340" as="targetPoint" />
            <Array as="points">
              <mxPoint x="420" y="340" />
            </Array>
          </mxGeometry>
        </mxCell>
        <mxCell id="CR8tAsrSVtQFrWANwIwZ-6" value="" style="endArrow=classic;html=1;rounded=0;entryX=1;entryY=0.5;entryDx=0;entryDy=0;exitX=0;exitY=0.5;exitDx=0;exitDy=0;" edge="1" parent="WIyWlLk6GJQsqaUBKTNV-1" source="CR8tAsrSVtQFrWANwIwZ-4" target="CR8tAsrSVtQFrWANwIwZ-1">
          <mxGeometry width="50" height="50" relative="1" as="geometry">
            <mxPoint x="380" y="480" as="sourcePoint" />
            <mxPoint x="430" y="430" as="targetPoint" />
          </mxGeometry>
        </mxCell>
        <mxCell id="CR8tAsrSVtQFrWANwIwZ-19" style="edgeStyle=orthogonalEdgeStyle;rounded=0;orthogonalLoop=1;jettySize=auto;html=1;exitX=0.5;exitY=1;exitDx=0;exitDy=0;entryX=0.5;entryY=0;entryDx=0;entryDy=0;" edge="1" parent="WIyWlLk6GJQsqaUBKTNV-1" source="CR8tAsrSVtQFrWANwIwZ-9" target="CR8tAsrSVtQFrWANwIwZ-11">
          <mxGeometry relative="1" as="geometry" />
        </mxCell>
        <mxCell id="CR8tAsrSVtQFrWANwIwZ-9" value="Mehl und Hefe in Schüssel" style="rounded=0;whiteSpace=wrap;html=1;" vertex="1" parent="WIyWlLk6GJQsqaUBKTNV-1">
          <mxGeometry x="200" y="410" width="120" height="60" as="geometry" />
        </mxCell>
        <mxCell id="CR8tAsrSVtQFrWANwIwZ-17" style="edgeStyle=orthogonalEdgeStyle;rounded=0;orthogonalLoop=1;jettySize=auto;html=1;exitX=0.5;exitY=1;exitDx=0;exitDy=0;entryX=0.5;entryY=0;entryDx=0;entryDy=0;" edge="1" parent="WIyWlLk6GJQsqaUBKTNV-1" source="CR8tAsrSVtQFrWANwIwZ-11" target="CR8tAsrSVtQFrWANwIwZ-12">
          <mxGeometry relative="1" as="geometry" />
        </mxCell>
        <mxCell id="CR8tAsrSVtQFrWANwIwZ-11" value="Wasser und Milch einfügen" style="rounded=0;whiteSpace=wrap;html=1;" vertex="1" parent="WIyWlLk6GJQsqaUBKTNV-1">
          <mxGeometry x="200" y="500" width="120" height="60" as="geometry" />
        </mxCell>
        <mxCell id="CR8tAsrSVtQFrWANwIwZ-16" value="Nein" style="edgeStyle=orthogonalEdgeStyle;rounded=0;orthogonalLoop=1;jettySize=auto;html=1;exitX=1;exitY=0.5;exitDx=0;exitDy=0;entryX=0;entryY=0.5;entryDx=0;entryDy=0;" edge="1" parent="WIyWlLk6GJQsqaUBKTNV-1" source="CR8tAsrSVtQFrWANwIwZ-12" target="CR8tAsrSVtQFrWANwIwZ-14">
          <mxGeometry relative="1" as="geometry" />
        </mxCell>
        <mxCell id="CR8tAsrSVtQFrWANwIwZ-28" value="Ja" style="edgeStyle=orthogonalEdgeStyle;rounded=0;orthogonalLoop=1;jettySize=auto;html=1;exitX=0.5;exitY=1;exitDx=0;exitDy=0;entryX=0.5;entryY=0;entryDx=0;entryDy=0;" edge="1" parent="WIyWlLk6GJQsqaUBKTNV-1" source="CR8tAsrSVtQFrWANwIwZ-12" target="CR8tAsrSVtQFrWANwIwZ-27">
          <mxGeometry relative="1" as="geometry" />
        </mxCell>
        <mxCell id="CR8tAsrSVtQFrWANwIwZ-12" value="Fühlt sich wie&lt;div&gt;&lt;span style=&quot;background-color: initial;&quot;&gt;Teig an?&lt;/span&gt;&lt;/div&gt;" style="rhombus;whiteSpace=wrap;html=1;" vertex="1" parent="WIyWlLk6GJQsqaUBKTNV-1">
          <mxGeometry x="200" y="590" width="120" height="80" as="geometry" />
        </mxCell>
        <mxCell id="CR8tAsrSVtQFrWANwIwZ-15" value="Ja" style="edgeStyle=orthogonalEdgeStyle;rounded=0;orthogonalLoop=1;jettySize=auto;html=1;exitX=0.5;exitY=0;exitDx=0;exitDy=0;entryX=1;entryY=0.5;entryDx=0;entryDy=0;" edge="1" parent="WIyWlLk6GJQsqaUBKTNV-1" source="CR8tAsrSVtQFrWANwIwZ-14" target="CR8tAsrSVtQFrWANwIwZ-11">
          <mxGeometry relative="1" as="geometry">
            <mxPoint x="420" y="560" as="targetPoint" />
          </mxGeometry>
        </mxCell>
        <mxCell id="CR8tAsrSVtQFrWANwIwZ-23" value="Nein" style="edgeStyle=orthogonalEdgeStyle;rounded=0;orthogonalLoop=1;jettySize=auto;html=1;exitX=1;exitY=0.5;exitDx=0;exitDy=0;entryX=0;entryY=0.5;entryDx=0;entryDy=0;" edge="1" parent="WIyWlLk6GJQsqaUBKTNV-1" source="CR8tAsrSVtQFrWANwIwZ-14" target="CR8tAsrSVtQFrWANwIwZ-21">
          <mxGeometry relative="1" as="geometry" />
        </mxCell>
        <mxCell id="CR8tAsrSVtQFrWANwIwZ-14" value="Zu Hart?" style="rhombus;whiteSpace=wrap;html=1;" vertex="1" parent="WIyWlLk6GJQsqaUBKTNV-1">
          <mxGeometry x="360" y="590" width="120" height="80" as="geometry" />
        </mxCell>
        <mxCell id="CR8tAsrSVtQFrWANwIwZ-26" value="Nein" style="edgeStyle=orthogonalEdgeStyle;rounded=0;orthogonalLoop=1;jettySize=auto;html=1;exitX=1;exitY=0.5;exitDx=0;exitDy=0;entryX=1;entryY=0.5;entryDx=0;entryDy=0;" edge="1" parent="WIyWlLk6GJQsqaUBKTNV-1" source="CR8tAsrSVtQFrWANwIwZ-21" target="CR8tAsrSVtQFrWANwIwZ-27">
          <mxGeometry relative="1" as="geometry">
            <mxPoint x="320" y="720" as="targetPoint" />
            <Array as="points">
              <mxPoint x="660" y="630" />
              <mxPoint x="660" y="730" />
            </Array>
          </mxGeometry>
        </mxCell>
        <mxCell id="CR8tAsrSVtQFrWANwIwZ-37" value="Ja" style="edgeStyle=orthogonalEdgeStyle;rounded=0;orthogonalLoop=1;jettySize=auto;html=1;exitX=0.5;exitY=0;exitDx=0;exitDy=0;entryX=1;entryY=0.5;entryDx=0;entryDy=0;" edge="1" parent="WIyWlLk6GJQsqaUBKTNV-1" source="CR8tAsrSVtQFrWANwIwZ-21" target="CR8tAsrSVtQFrWANwIwZ-36">
          <mxGeometry relative="1" as="geometry" />
        </mxCell>
        <mxCell id="CR8tAsrSVtQFrWANwIwZ-21" value="Zu Flüssig?" style="rhombus;whiteSpace=wrap;html=1;" vertex="1" parent="WIyWlLk6GJQsqaUBKTNV-1">
          <mxGeometry x="520" y="590" width="120" height="80" as="geometry" />
        </mxCell>
        <mxCell id="CR8tAsrSVtQFrWANwIwZ-30" style="edgeStyle=orthogonalEdgeStyle;rounded=0;orthogonalLoop=1;jettySize=auto;html=1;exitX=0.5;exitY=1;exitDx=0;exitDy=0;entryX=0.5;entryY=0;entryDx=0;entryDy=0;" edge="1" parent="WIyWlLk6GJQsqaUBKTNV-1" source="CR8tAsrSVtQFrWANwIwZ-27" target="CR8tAsrSVtQFrWANwIwZ-29">
          <mxGeometry relative="1" as="geometry" />
        </mxCell>
        <mxCell id="CR8tAsrSVtQFrWANwIwZ-27" value="Salz beigeben" style="rounded=0;whiteSpace=wrap;html=1;" vertex="1" parent="WIyWlLk6GJQsqaUBKTNV-1">
          <mxGeometry x="200" y="700" width="120" height="60" as="geometry" />
        </mxCell>
        <mxCell id="CR8tAsrSVtQFrWANwIwZ-35" style="edgeStyle=orthogonalEdgeStyle;rounded=0;orthogonalLoop=1;jettySize=auto;html=1;exitX=0.5;exitY=1;exitDx=0;exitDy=0;entryX=0.5;entryY=0;entryDx=0;entryDy=0;" edge="1" parent="WIyWlLk6GJQsqaUBKTNV-1" source="CR8tAsrSVtQFrWANwIwZ-29" target="CR8tAsrSVtQFrWANwIwZ-31">
          <mxGeometry relative="1" as="geometry" />
        </mxCell>
        <mxCell id="CR8tAsrSVtQFrWANwIwZ-29" value="ca. 10min Kneten" style="rounded=0;whiteSpace=wrap;html=1;" vertex="1" parent="WIyWlLk6GJQsqaUBKTNV-1">
          <mxGeometry x="200" y="790" width="120" height="60" as="geometry" />
        </mxCell>
        <mxCell id="CR8tAsrSVtQFrWANwIwZ-34" style="edgeStyle=orthogonalEdgeStyle;rounded=0;orthogonalLoop=1;jettySize=auto;html=1;exitX=0.5;exitY=1;exitDx=0;exitDy=0;entryX=0.5;entryY=0;entryDx=0;entryDy=0;" edge="1" parent="WIyWlLk6GJQsqaUBKTNV-1" source="CR8tAsrSVtQFrWANwIwZ-31" target="CR8tAsrSVtQFrWANwIwZ-32">
          <mxGeometry relative="1" as="geometry" />
        </mxCell>
        <mxCell id="CR8tAsrSVtQFrWANwIwZ-41" style="edgeStyle=orthogonalEdgeStyle;rounded=0;orthogonalLoop=1;jettySize=auto;html=1;exitX=0.5;exitY=1;exitDx=0;exitDy=0;entryX=0.5;entryY=0;entryDx=0;entryDy=0;" edge="1" parent="WIyWlLk6GJQsqaUBKTNV-1" source="CR8tAsrSVtQFrWANwIwZ-31" target="CR8tAsrSVtQFrWANwIwZ-40">
          <mxGeometry relative="1" as="geometry" />
        </mxCell>
        <mxCell id="CR8tAsrSVtQFrWANwIwZ-31" value="Teig eindecken und ruhen lassen" style="rounded=0;whiteSpace=wrap;html=1;" vertex="1" parent="WIyWlLk6GJQsqaUBKTNV-1">
          <mxGeometry x="200" y="880" width="120" height="60" as="geometry" />
        </mxCell>
        <mxCell id="CR8tAsrSVtQFrWANwIwZ-33" value="Nein" style="edgeStyle=orthogonalEdgeStyle;rounded=0;orthogonalLoop=1;jettySize=auto;html=1;exitX=1;exitY=0.5;exitDx=0;exitDy=0;entryX=1;entryY=0.5;entryDx=0;entryDy=0;" edge="1" parent="WIyWlLk6GJQsqaUBKTNV-1" source="CR8tAsrSVtQFrWANwIwZ-32" target="CR8tAsrSVtQFrWANwIwZ-31">
          <mxGeometry relative="1" as="geometry" />
        </mxCell>
        <mxCell id="CR8tAsrSVtQFrWANwIwZ-54" value="Ja" style="edgeStyle=orthogonalEdgeStyle;rounded=0;orthogonalLoop=1;jettySize=auto;html=1;exitX=0.5;exitY=1;exitDx=0;exitDy=0;entryX=0.5;entryY=0;entryDx=0;entryDy=0;" edge="1" parent="WIyWlLk6GJQsqaUBKTNV-1" source="CR8tAsrSVtQFrWANwIwZ-32" target="CR8tAsrSVtQFrWANwIwZ-42">
          <mxGeometry relative="1" as="geometry" />
        </mxCell>
        <mxCell id="CR8tAsrSVtQFrWANwIwZ-32" value="Teig Doppelt so Gross?" style="rhombus;whiteSpace=wrap;html=1;" vertex="1" parent="WIyWlLk6GJQsqaUBKTNV-1">
          <mxGeometry x="200" y="970" width="120" height="80" as="geometry" />
        </mxCell>
        <mxCell id="CR8tAsrSVtQFrWANwIwZ-38" style="edgeStyle=orthogonalEdgeStyle;rounded=0;orthogonalLoop=1;jettySize=auto;html=1;exitX=0;exitY=0.5;exitDx=0;exitDy=0;entryX=0.5;entryY=0;entryDx=0;entryDy=0;" edge="1" parent="WIyWlLk6GJQsqaUBKTNV-1" source="CR8tAsrSVtQFrWANwIwZ-36" target="CR8tAsrSVtQFrWANwIwZ-12">
          <mxGeometry relative="1" as="geometry">
            <mxPoint x="340" y="590" as="targetPoint" />
            <Array as="points">
              <mxPoint x="340" y="440" />
              <mxPoint x="340" y="590" />
            </Array>
          </mxGeometry>
        </mxCell>
        <mxCell id="CR8tAsrSVtQFrWANwIwZ-36" value="Mehl und Hefe einfügen" style="rounded=0;whiteSpace=wrap;html=1;" vertex="1" parent="WIyWlLk6GJQsqaUBKTNV-1">
          <mxGeometry x="360" y="410" width="120" height="60" as="geometry" />
        </mxCell>
        <mxCell id="CR8tAsrSVtQFrWANwIwZ-58" style="edgeStyle=orthogonalEdgeStyle;rounded=0;orthogonalLoop=1;jettySize=auto;html=1;exitX=0;exitY=0.5;exitDx=0;exitDy=0;entryX=1;entryY=0.5;entryDx=0;entryDy=0;" edge="1" parent="WIyWlLk6GJQsqaUBKTNV-1" source="CR8tAsrSVtQFrWANwIwZ-40" target="CR8tAsrSVtQFrWANwIwZ-57">
          <mxGeometry relative="1" as="geometry">
            <Array as="points">
              <mxPoint x="30" y="1010" />
              <mxPoint x="30" y="920" />
            </Array>
          </mxGeometry>
        </mxCell>
        <mxCell id="CR8tAsrSVtQFrWANwIwZ-40" value="Backofen vorheizen 230 Oben/Unten" style="shape=process;whiteSpace=wrap;html=1;backgroundOutline=1;" vertex="1" parent="WIyWlLk6GJQsqaUBKTNV-1">
          <mxGeometry x="50" y="980" width="120" height="60" as="geometry" />
        </mxCell>
        <mxCell id="CR8tAsrSVtQFrWANwIwZ-53" style="edgeStyle=orthogonalEdgeStyle;rounded=0;orthogonalLoop=1;jettySize=auto;html=1;exitX=0.5;exitY=1;exitDx=0;exitDy=0;entryX=0.5;entryY=0;entryDx=0;entryDy=0;" edge="1" parent="WIyWlLk6GJQsqaUBKTNV-1" source="CR8tAsrSVtQFrWANwIwZ-42" target="CR8tAsrSVtQFrWANwIwZ-43">
          <mxGeometry relative="1" as="geometry" />
        </mxCell>
        <mxCell id="CR8tAsrSVtQFrWANwIwZ-42" value="2 Teig stücke Rollen" style="rounded=0;whiteSpace=wrap;html=1;" vertex="1" parent="WIyWlLk6GJQsqaUBKTNV-1">
          <mxGeometry x="200" y="1080" width="120" height="60" as="geometry" />
        </mxCell>
        <mxCell id="CR8tAsrSVtQFrWANwIwZ-52" style="edgeStyle=orthogonalEdgeStyle;rounded=0;orthogonalLoop=1;jettySize=auto;html=1;exitX=0.5;exitY=1;exitDx=0;exitDy=0;entryX=0.5;entryY=0;entryDx=0;entryDy=0;" edge="1" parent="WIyWlLk6GJQsqaUBKTNV-1" source="CR8tAsrSVtQFrWANwIwZ-43" target="CR8tAsrSVtQFrWANwIwZ-44">
          <mxGeometry relative="1" as="geometry" />
        </mxCell>
        <mxCell id="CR8tAsrSVtQFrWANwIwZ-43" value="in Backofen" style="rounded=0;whiteSpace=wrap;html=1;" vertex="1" parent="WIyWlLk6GJQsqaUBKTNV-1">
          <mxGeometry x="200" y="1169" width="120" height="60" as="geometry" />
        </mxCell>
        <mxCell id="CR8tAsrSVtQFrWANwIwZ-51" style="edgeStyle=orthogonalEdgeStyle;rounded=0;orthogonalLoop=1;jettySize=auto;html=1;exitX=0.5;exitY=1;exitDx=0;exitDy=0;entryX=0.5;entryY=0;entryDx=0;entryDy=0;" edge="1" parent="WIyWlLk6GJQsqaUBKTNV-1" source="CR8tAsrSVtQFrWANwIwZ-44" target="CR8tAsrSVtQFrWANwIwZ-45">
          <mxGeometry relative="1" as="geometry" />
        </mxCell>
        <mxCell id="CR8tAsrSVtQFrWANwIwZ-44" value="In Beide Kleines Kreuz schneiden" style="rounded=0;whiteSpace=wrap;html=1;" vertex="1" parent="WIyWlLk6GJQsqaUBKTNV-1">
          <mxGeometry x="200" y="1260" width="120" height="60" as="geometry" />
        </mxCell>
        <mxCell id="CR8tAsrSVtQFrWANwIwZ-50" style="edgeStyle=orthogonalEdgeStyle;rounded=0;orthogonalLoop=1;jettySize=auto;html=1;exitX=0.5;exitY=1;exitDx=0;exitDy=0;" edge="1" parent="WIyWlLk6GJQsqaUBKTNV-1" source="CR8tAsrSVtQFrWANwIwZ-45">
          <mxGeometry relative="1" as="geometry">
            <mxPoint x="260" y="1440" as="targetPoint" />
          </mxGeometry>
        </mxCell>
        <mxCell id="CR8tAsrSVtQFrWANwIwZ-45" value="40min warten" style="rounded=0;whiteSpace=wrap;html=1;" vertex="1" parent="WIyWlLk6GJQsqaUBKTNV-1">
          <mxGeometry x="200" y="1350" width="120" height="60" as="geometry" />
        </mxCell>
        <mxCell id="CR8tAsrSVtQFrWANwIwZ-48" value="Nein" style="edgeStyle=orthogonalEdgeStyle;rounded=0;orthogonalLoop=1;jettySize=auto;html=1;exitX=1;exitY=0.5;exitDx=0;exitDy=0;entryX=0;entryY=0.5;entryDx=0;entryDy=0;" edge="1" parent="WIyWlLk6GJQsqaUBKTNV-1" source="CR8tAsrSVtQFrWANwIwZ-46" target="CR8tAsrSVtQFrWANwIwZ-47">
          <mxGeometry relative="1" as="geometry" />
        </mxCell>
        <mxCell id="CR8tAsrSVtQFrWANwIwZ-56" value="Ja" style="edgeStyle=orthogonalEdgeStyle;rounded=0;orthogonalLoop=1;jettySize=auto;html=1;exitX=0.5;exitY=1;exitDx=0;exitDy=0;entryX=0.5;entryY=0;entryDx=0;entryDy=0;" edge="1" parent="WIyWlLk6GJQsqaUBKTNV-1" source="CR8tAsrSVtQFrWANwIwZ-46" target="CR8tAsrSVtQFrWANwIwZ-55">
          <mxGeometry relative="1" as="geometry" />
        </mxCell>
        <mxCell id="CR8tAsrSVtQFrWANwIwZ-46" value="Harte Kruste aber innenweich?" style="rhombus;whiteSpace=wrap;html=1;fontSize=11;" vertex="1" parent="WIyWlLk6GJQsqaUBKTNV-1">
          <mxGeometry x="200" y="1440" width="120" height="80" as="geometry" />
        </mxCell>
        <mxCell id="CR8tAsrSVtQFrWANwIwZ-49" style="edgeStyle=orthogonalEdgeStyle;rounded=0;orthogonalLoop=1;jettySize=auto;html=1;exitX=0.5;exitY=0;exitDx=0;exitDy=0;entryX=0.5;entryY=0;entryDx=0;entryDy=0;" edge="1" parent="WIyWlLk6GJQsqaUBKTNV-1" source="CR8tAsrSVtQFrWANwIwZ-47" target="CR8tAsrSVtQFrWANwIwZ-46">
          <mxGeometry relative="1" as="geometry" />
        </mxCell>
        <mxCell id="CR8tAsrSVtQFrWANwIwZ-47" value="5min Warten" style="rounded=0;whiteSpace=wrap;html=1;" vertex="1" parent="WIyWlLk6GJQsqaUBKTNV-1">
          <mxGeometry x="360" y="1450" width="120" height="60" as="geometry" />
        </mxCell>
        <mxCell id="CR8tAsrSVtQFrWANwIwZ-55" value="Ende" style="ellipse;whiteSpace=wrap;html=1;fontSize=28;" vertex="1" parent="WIyWlLk6GJQsqaUBKTNV-1">
          <mxGeometry x="200" y="1550" width="120" height="80" as="geometry" />
        </mxCell>
        <mxCell id="CR8tAsrSVtQFrWANwIwZ-63" style="edgeStyle=orthogonalEdgeStyle;rounded=0;orthogonalLoop=1;jettySize=auto;html=1;exitX=0.5;exitY=1;exitDx=0;exitDy=0;entryX=0.5;entryY=0;entryDx=0;entryDy=0;" edge="1" parent="WIyWlLk6GJQsqaUBKTNV-1" source="CR8tAsrSVtQFrWANwIwZ-57" target="CR8tAsrSVtQFrWANwIwZ-59">
          <mxGeometry relative="1" as="geometry" />
        </mxCell>
        <mxCell id="CR8tAsrSVtQFrWANwIwZ-57" value="Start" style="ellipse;whiteSpace=wrap;html=1;fontSize=28;" vertex="1" parent="WIyWlLk6GJQsqaUBKTNV-1">
          <mxGeometry x="-100" y="880" width="120" height="80" as="geometry" />
        </mxCell>
        <mxCell id="CR8tAsrSVtQFrWANwIwZ-64" style="edgeStyle=orthogonalEdgeStyle;rounded=0;orthogonalLoop=1;jettySize=auto;html=1;exitX=0.5;exitY=1;exitDx=0;exitDy=0;entryX=0.5;entryY=0;entryDx=0;entryDy=0;" edge="1" parent="WIyWlLk6GJQsqaUBKTNV-1" source="CR8tAsrSVtQFrWANwIwZ-59" target="CR8tAsrSVtQFrWANwIwZ-60">
          <mxGeometry relative="1" as="geometry" />
        </mxCell>
        <mxCell id="CR8tAsrSVtQFrWANwIwZ-59" value="Backofen anstellen" style="rounded=0;whiteSpace=wrap;html=1;" vertex="1" parent="WIyWlLk6GJQsqaUBKTNV-1">
          <mxGeometry x="-100" y="980" width="120" height="60" as="geometry" />
        </mxCell>
        <mxCell id="CR8tAsrSVtQFrWANwIwZ-65" style="edgeStyle=orthogonalEdgeStyle;rounded=0;orthogonalLoop=1;jettySize=auto;html=1;exitX=0.5;exitY=1;exitDx=0;exitDy=0;entryX=0.5;entryY=0;entryDx=0;entryDy=0;" edge="1" parent="WIyWlLk6GJQsqaUBKTNV-1" source="CR8tAsrSVtQFrWANwIwZ-60" target="CR8tAsrSVtQFrWANwIwZ-61">
          <mxGeometry relative="1" as="geometry" />
        </mxCell>
        <mxCell id="CR8tAsrSVtQFrWANwIwZ-60" value="Unter/Oben einstellen" style="rounded=0;whiteSpace=wrap;html=1;" vertex="1" parent="WIyWlLk6GJQsqaUBKTNV-1">
          <mxGeometry x="-100" y="1060" width="120" height="60" as="geometry" />
        </mxCell>
        <mxCell id="CR8tAsrSVtQFrWANwIwZ-66" style="edgeStyle=orthogonalEdgeStyle;rounded=0;orthogonalLoop=1;jettySize=auto;html=1;exitX=0.5;exitY=1;exitDx=0;exitDy=0;entryX=0.5;entryY=0;entryDx=0;entryDy=0;" edge="1" parent="WIyWlLk6GJQsqaUBKTNV-1" source="CR8tAsrSVtQFrWANwIwZ-61" target="CR8tAsrSVtQFrWANwIwZ-62">
          <mxGeometry relative="1" as="geometry" />
        </mxCell>
        <mxCell id="CR8tAsrSVtQFrWANwIwZ-61" value="Auf 230° einstellen" style="rounded=0;whiteSpace=wrap;html=1;" vertex="1" parent="WIyWlLk6GJQsqaUBKTNV-1">
          <mxGeometry x="-100" y="1140" width="120" height="60" as="geometry" />
        </mxCell>
        <mxCell id="CR8tAsrSVtQFrWANwIwZ-62" value="Ende" style="ellipse;whiteSpace=wrap;html=1;fontSize=28;" vertex="1" parent="WIyWlLk6GJQsqaUBKTNV-1">
          <mxGeometry x="-100" y="1220" width="120" height="80" as="geometry" />
        </mxCell>
        <mxCell id="CR8tAsrSVtQFrWANwIwZ-67" value="Bauern Brot Backen" style="text;html=1;align=center;verticalAlign=middle;whiteSpace=wrap;rounded=0;fontSize=33;" vertex="1" parent="WIyWlLk6GJQsqaUBKTNV-1">
          <mxGeometry x="102.5" y="50" width="315" height="30" as="geometry" />
        </mxCell>
        <mxCell id="CR8tAsrSVtQFrWANwIwZ-68" value="" style="endArrow=classic;html=1;rounded=0;exitX=1;exitY=0.5;exitDx=0;exitDy=0;entryX=0;entryY=0.5;entryDx=0;entryDy=0;" edge="1" parent="WIyWlLk6GJQsqaUBKTNV-1" source="CR8tAsrSVtQFrWANwIwZ-2" target="CR8tAsrSVtQFrWANwIwZ-69">
          <mxGeometry width="50" height="50" relative="1" as="geometry">
            <mxPoint x="320" y="340" as="sourcePoint" />
            <mxPoint x="420" y="270" as="targetPoint" />
            <Array as="points" />
          </mxGeometry>
        </mxCell>
        <mxCell id="CR8tAsrSVtQFrWANwIwZ-69" value="Nein" style="text;html=1;align=center;verticalAlign=middle;whiteSpace=wrap;rounded=0;" vertex="1" parent="WIyWlLk6GJQsqaUBKTNV-1">
          <mxGeometry x="360" y="325" width="30" height="30" as="geometry" />
        </mxCell>
      </root>
    </mxGraphModel>
  </diagram>
</mxfile>
